PathFileType	4	(x/y/z)	S01_P20_T21
DataRate	CameraRate	NumFrames	NumMarkers	Units	OrigDataRate	OrigDataStartFrame	OrigNumFrames
240	240	9	51	mm	240	334	381
Frame#	Time	Sternum			R.Acromium			L.Acromium			Top.Head			R.ASIS			L.ASIS			R.PSIS			L.PSIS			R.Great.Tro			L.Great.Tro			R.Iliac.Crest			L.Iliac.Crest			V.Sacral			R.Thigh.Upper.Post			R.Thigh.Lower.Ant			R.Thigh.Lower.Post			R.Thigh.Upper.Ant			R.Knee.Lat			R.Knee.Med			R.Shank.Upper.Post			R.Shank.Lower.Ant			R.Shank.Lower.Post			R.Shank.Upper.Ant			R.Ankle.Lat			R.Ankle.Med			R.Heel.Upper			R.Heel.Med			R.Heel.Lat			R.Toe.Lat			R.Toe.Med			R.Toe.Tip			L.Thigh.Upper.Post			L.Thigh.Lower.Ant			L.Thigh.Lower.Post			L.Thigh.Upper.Ant			L.Knee.Lat			L.Knee.Med			L.Shank.Upper.Post			L.Shank.Lower.Ant			L.Shank.Lower.Post			L.Shank.Upper.Ant			L.Ankle.Lat			L.Ankle.Med			L.Heel.Upper			L.Heel.Med			L.Heel.Lat			L.Toe.Lat			L.Toe.Med			L.Toe.Tip			Cervical.Spine			Back			
		X1	Y1	Z1	X2	Y2	Z2	X3	Y3	Z3	X4	Y4	Z4	X5	Y5	Z5	X6	Y6	Z6	X7	Y7	Z7	X8	Y8	Z8	X9	Y9	Z9	X10	Y10	Z10	X11	Y11	Z11	X12	Y12	Z12	X13	Y13	Z13	X14	Y14	Z14	X15	Y15	Z15	X16	Y16	Z16	X17	Y17	Z17	X18	Y18	Z18	X19	Y19	Z19	X20	Y20	Z20	X21	Y21	Z21	X22	Y22	Z22	X23	Y23	Z23	X24	Y24	Z24	X25	Y25	Z25	X26	Y26	Z26	X27	Y27	Z27	X28	Y28	Z28	X29	Y29	Z29	X30	Y30	Z30	X31	Y31	Z31	X32	Y32	Z32	X33	Y33	Z33	X34	Y34	Z34	X35	Y35	Z35	X36	Y36	Z36	X37	Y37	Z37	X38	Y38	Z38	X39	Y39	Z39	X40	Y40	Z40	X41	Y41	Z41	X42	Y42	Z42	X43	Y43	Z43	X44	Y44	Z44	X45	Y45	Z45	X46	Y46	Z46	X47	Y47	Z47	X48	Y48	Z48	X49	Y49	Z49	X50	Y50	Z50	X51	Y51	Z51	

334	1.3875	594.2	1262.4	254.43	479.32	1522.5	427.3	454.55	1526.1	95.601	453.98	1843.8	249.06	547.14	1018.2	418.64	547.62	1004.2	151.19	311.75	1060.2	330.25	306.87	1059.7	226.3	475.67	972.47	504.89	432.72	960.61	76.848	459.75	1121.1	480.87	437.71	1085.2	76.645	295.02	1023.6	276.69	568.02	676.48	489.61	659.91	637.67	462.55	603.8	596.93	468.1	626.34	719.94	482.97	651.28	551.71	462.09	653.13	549.55	315.22	635.05	385.62	484.25	715.6	319.53	446.76	647.94	316.29	473.38	698.29	389.64	462.73	705.99	115.47	442.6	736.99	132.05	351.84	652.29	63.575	381.11	676.51	41.269	352.32	670.31	36.918	416.3	850.73	82.27	480.89	881.79	106.37	362.05	931.39	145.12	419.95	356.07	694.49	94.923	427.42	610.36	90.162	351.15	604.31	109.1	425.75	705.51	75.333	378.09	509.71	95.602	408.77	502.49	238.11	281.32	396.57	75.58	307.49	290.66	96.955	255.14	323.41	76.963	334.67	362.57	90.219	165.09	124.32	111.45	191.66	128.73	206.83	88.417	99.01	154.64	94.748	71.659	187.57	95.385	72.815	125.53	300.65	38.648	88.925	325.02	44.647	211.67	388.88	50.472	161.88	377.13	1579.6	263.76	297.03	1271.9	290.37
335	1.3917	600.04	1261.3	255.24	485.23	1521.2	428.34	460.24	1525	96.608	460.28	1842.7	250.09	553.24	1017	419.13	553.51	1003.3	151.6	317.68	1058.8	330.96	312.78	1058.4	227.01	481.9	970.99	505.3	438.59	959.66	77.312	465.75	1119.5	481.66	443.43	1084.2	77.259	301.01	1022.2	277.37	574.44	675.44	489.32	666.2	636.61	461.8	610.15	595.87	467.83	632.72	718.9	482.37	657.43	550.45	461.7	658.6	548.34	314.97	640.93	384.3	483.85	721.24	318.06	446.17	653.66	314.96	472.98	704.11	388.19	462.17	711.17	114.4	442.18	741.9	130.57	351.25	657.04	62.931	380.87	680.96	40.337	352.1	674.95	36.312	416.12	855.78	80.618	479.94	886.49	104.36	360.92	936.51	142.87	418.58	361.73	693.54	95.281	433	609.36	90.166	356.78	603.35	109.32	431.39	704.55	75.511	383.46	508.8	95.476	414.31	501.25	238.01	285.56	396.75	75.49	310.56	290.55	96.806	258.55	323.89	76.874	338.55	362.15	90.057	166.25	125.74	111.42	192.94	130.09	206.72	89.301	101.34	154.68	95.395	74.048	187.66	95.965	75.019	125.62	300.67	38.61	88.963	325.08	44.587	211.67	388.98	50.239	161.89	382.88	1578.4	264.9	302.81	1270.6	291.33
336	1.3958	605.88	1260.2	256.07	491.13	1519.9	429.42	465.92	1523.8	97.651	466.58	1841.6	251.16	559.36	1015.7	419.62	559.43	1002.4	152.04	323.62	1057.4	331.66	318.73	1057	227.72	488.14	969.57	505.71	444.51	958.71	77.788	471.77	1117.9	482.45	449.18	1083.3	77.873	307.04	1020.8	278.05	580.92	674.46	489.03	672.55	635.58	461.08	616.56	594.86	467.57	639.18	717.9	481.8	663.59	549.2	461.34	664.16	547.18	314.77	646.68	383.01	483.42	726.67	316.54	445.55	659.18	313.66	472.55	709.8	386.71	461.59	715.89	113.36	441.7	746.39	129.05	350.61	661.25	62.443	380.56	684.82	39.514	351.81	679	35.829	415.87	860.26	78.722	478.94	890.7	102.03	359.75	941.2	140.19	417.18	367.53	692.56	95.647	438.75	608.37	90.14	362.61	602.35	109.54	437.16	703.6	75.678	389.05	507.88	95.314	420.07	499.98	237.87	290	396.98	75.37	313.77	290.49	96.622	262.13	324.43	76.761	342.6	361.76	89.849	167.54	127.3	111.35	194.35	131.57	206.58	90.314	103.89	154.7	96.147	76.663	187.75	96.643	77.431	125.69	300.69	38.58	88.997	325.12	44.529	211.66	389.08	50.001	161.89	388.63	1577.3	266.08	308.59	1269.3	292.31
337	1.4	611.74	1259.1	256.94	497.02	1518.6	430.55	471.58	1522.7	98.729	472.87	1840.5	252.26	565.51	1014.6	420.12	565.37	1001.5	152.5	329.58	1056.1	332.36	324.69	1055.7	228.42	494.41	968.2	506.13	450.48	957.76	78.274	477.81	1116.4	483.26	454.96	1082.3	78.489	313.09	1019.5	278.73	587.44	673.53	488.73	678.95	634.59	460.4	623	593.89	467.32	645.7	716.94	481.26	669.79	547.97	461	669.8	546.07	314.62	652.33	381.77	482.97	731.93	314.99	444.91	664.52	312.39	472.09	715.38	385.2	461	720.17	112.34	441.17	750.49	127.5	349.94	664.96	62.111	380.19	688.14	38.805	351.46	682.47	35.469	415.56	864.23	76.604	477.93	894.46	99.418	358.57	945.49	137.11	415.78	373.48	691.56	96.016	444.67	607.38	90.08	368.62	601.33	109.74	443.06	702.65	75.833	394.85	506.96	95.114	426.06	498.71	237.67	294.63	397.25	75.219	317.16	290.49	96.399	265.9	325.05	76.624	346.84	361.43	89.594	168.96	128.99	111.26	195.9	133.17	206.41	91.474	106.66	154.7	97.021	79.516	187.82	97.433	80.064	125.76	300.71	38.562	89.026	325.15	44.476	211.66	389.17	49.755	161.9	394.38	1576.2	267.3	314.37	1268.1	293.31
338	1.4042	617.6	1258.2	257.83	502.89	1517.4	431.71	477.22	1521.6	99.842	479.15	1839.4	253.39	571.67	1013.5	420.63	571.32	1000.7	152.98	335.54	1054.7	333.06	330.67	1054.4	229.12	500.69	966.89	506.56	456.51	956.82	78.772	483.87	1115	484.08	460.75	1081.4	79.106	319.15	1018.1	279.41	594.01	672.65	488.44	685.39	633.64	459.78	629.48	592.96	467.09	652.28	716.02	480.76	676.02	546.77	460.67	675.52	545.03	314.52	657.89	380.58	482.52	737.04	313.42	444.26	669.7	311.17	471.63	720.88	383.69	460.4	724.06	111.35	440.63	754.22	125.93	349.26	668.21	61.934	379.79	690.95	38.216	351.09	685.43	35.23	415.22	867.72	74.293	476.93	897.79	96.541	357.39	949.41	133.67	414.4	379.58	690.54	96.384	450.79	606.41	89.984	374.83	600.29	109.93	449.11	701.72	75.972	400.89	506.05	94.874	432.29	497.42	237.42	299.48	397.59	75.037	320.72	290.56	96.136	269.86	325.75	76.463	351.29	361.13	89.29	170.55	130.82	111.14	197.62	134.91	206.21	92.8	109.67	154.69	98.036	82.622	187.88	98.352	82.932	125.81	300.73	38.563	89.051	325.17	44.43	211.65	389.24	49.499	161.91	400.12	1575.1	268.56	320.15	1266.8	294.33
339	1.4083	623.48	1257.2	258.74	508.76	1516.1	432.92	482.85	1520.6	100.99	485.42	1838.4	254.55	577.84	1012.4	421.15	577.28	999.87	153.48	341.51	1053.4	333.76	336.67	1053.1	229.81	506.98	965.64	507	462.57	955.88	79.28	489.94	1113.6	484.9	466.57	1080.5	79.725	325.24	1016.8	280.09	600.6	671.82	488.14	691.86	632.73	459.21	636	592.08	466.87	658.89	715.14	480.32	682.29	545.61	460.37	681.32	544.05	314.46	663.38	379.45	482.06	742.02	311.85	443.6	674.76	310.01	471.16	726.32	382.2	459.8	727.59	110.41	440.09	757.64	124.37	348.58	671.04	61.903	379.38	693.31	37.748	350.71	687.93	35.106	414.86	870.77	71.821	475.94	900.75	93.435	356.25	953	129.9	413.05	385.84	689.49	96.746	457.11	605.45	89.847	381.24	599.21	110.09	455.3	700.79	76.095	407.16	505.13	94.592	438.79	496.11	237.12	304.56	397.99	74.826	324.47	290.7	95.833	274.03	326.53	76.28	355.95	360.89	88.936	172.3	132.81	110.99	199.52	136.77	205.98	94.315	112.93	154.66	99.213	85.992	187.93	99.419	86.051	125.86	300.76	38.588	89.071	325.19	44.395	211.64	389.32	49.227	161.91	405.86	1574	269.86	325.93	1265.6	295.37
340	1.4125	629.36	1256.3	259.68	514.62	1515	434.16	488.45	1519.6	102.16	491.67	1837.4	255.74	584.01	1011.5	421.68	583.24	999.12	154.01	347.48	1052.1	334.45	342.67	1051.8	230.5	513.29	964.46	507.46	468.68	954.95	79.799	496.02	1112.2	485.73	472.42	1079.7	80.348	331.33	1015.4	280.77	607.21	671.04	487.86	698.37	631.85	458.7	642.53	591.25	466.67	665.55	714.3	479.94	688.6	544.51	460.07	687.2	543.13	314.42	668.82	378.4	481.61	746.88	310.3	442.95	679.72	308.91	470.72	731.7	380.74	459.21	730.81	109.51	439.57	760.76	122.84	347.91	673.51	62.009	378.99	695.27	37.402	350.34	690.01	35.089	414.51	873.44	69.223	475.01	903.36	90.142	355.15	956.29	125.85	411.76	392.27	688.41	97.097	463.62	604.5	89.668	387.87	598.1	110.24	461.64	699.88	76.198	413.69	504.22	94.267	445.56	494.78	236.75	309.88	398.45	74.586	328.43	290.92	95.488	278.42	327.39	76.077	360.84	360.7	88.531	174.24	134.96	110.81	201.62	138.78	205.72	96.039	116.46	154.62	100.57	89.638	187.98	100.65	89.432	125.91	300.81	38.644	89.087	325.2	44.376	211.64	389.38	48.934	161.92	411.6	1573	271.19	331.7	1264.5	296.42
341	1.4167	635.24	1255.4	260.64	520.48	1513.8	435.43	494.03	1518.7	103.37	497.91	1836.5	256.96	590.18	1010.6	422.22	589.21	998.41	154.57	353.46	1050.9	335.14	348.69	1050.6	231.19	519.59	963.35	507.92	474.82	954.03	80.326	502.12	1111	486.56	478.29	1078.8	80.974	337.43	1014.2	281.45	613.84	670.3	487.6	704.91	631.03	458.25	649.08	590.46	466.48	672.22	713.51	479.63	694.97	543.48	459.8	693.15	542.29	314.42	674.25	377.45	481.2	751.67	308.79	442.31	684.6	307.91	470.31	737.05	379.32	458.62	733.74	108.67	439.08	763.62	121.34	347.28	675.65	62.243	378.61	696.88	37.176	349.98	691.73	35.171	414.18	875.75	66.537	474.14	905.68	86.705	354.12	959.3	121.59	410.54	398.87	687.3	97.434	470.35	603.56	89.445	394.73	596.97	110.35	468.14	698.97	76.28	420.49	503.31	93.897	452.63	493.44	236.32	315.46	398.98	74.318	332.61	291.21	95.102	283.04	328.35	75.855	365.96	360.57	88.077	176.38	137.27	110.61	203.94	140.91	205.43	97.997	120.27	154.58	102.14	93.572	188.02	102.07	93.09	125.95	300.87	38.739	89.099	325.22	44.379	211.64	389.45	48.616	161.93	417.34	1572	272.56	337.46	1263.3	297.49
342	1.4208	641.12	1254.6	261.61	526.33	1512.7	436.74	499.6	1517.8	104.6	504.13	1835.6	258.22	596.35	1009.8	422.78	595.17	997.74	155.15	359.43	1049.7	335.83	354.7	1049.3	231.87	525.9	962.31	508.4	480.99	953.11	80.863	508.22	1109.8	487.4	484.19	1078.1	81.606	343.53	1012.9	282.13	620.47	669.62	487.36	711.46	630.26	457.87	655.66	589.72	466.32	678.92	712.76	479.4	701.38	542.52	459.54	699.17	541.53	314.44	679.67	376.59	480.82	756.38	307.33	441.69	689.44	306.99	469.95	742.39	377.96	458.05	736.42	107.9	438.62	766.26	119.9	346.69	677.51	62.59	378.28	698.19	37.064	349.66	693.15	35.342	413.87	877.76	63.802	473.35	907.73	83.171	353.17	962.07	117.16	409.43	405.64	686.17	97.752	477.3	602.64	89.175	401.8	595.8	110.44	474.8	698.08	76.337	427.56	502.41	93.481	460	492.08	235.82	321.31	399.58	74.024	337.03	291.59	94.676	287.92	329.41	75.615	371.34	360.51	87.575	178.74	139.75	110.37	206.5	143.19	205.12	100.21	124.36	154.52	103.94	97.802	188.06	103.71	97.036	125.99	300.96	38.881	89.107	325.25	44.41	211.64	389.52	48.268	161.93	423.07	1571.1	273.97	343.22	1262.2	298.58
